<svg xmlns="http://www.w3.org/2000/svg" width="302mm" height="216mm" viewBox="0 0 302 216">
<title>MatrixBook — grille livret-a5-double-page</title>
<desc>1 unité SVG = 1 mm. Rouge : fond perdu. Noir : format fini. Vert : zone sûre. Bleu : marges et colonnes. Gris : grille de ligne de base.</desc>
<rect x="0" y="0" width="302" height="216" fill="#fbf8f1"/>
<rect x="0.15" y="0.15" width="301.7" height="215.7" fill="none" stroke="#c8102e" stroke-width="0.3" stroke-dasharray="2 1"/>
<rect x="3" y="3" width="148" height="210" fill="none" stroke="#1a1a1a" stroke-width="0.3"/>
<rect x="8" y="8" width="138" height="200" fill="none" stroke="#2e8b57" stroke-width="0.25" stroke-dasharray="1 1"/>
<rect x="21" y="19" width="118" height="172" fill="none" stroke="#1f5fa6" stroke-width="0.3"/>
<line x1="21" y1="19.000" x2="139" y2="19.000" stroke="#9a9a9a" stroke-width="0.1"/>
<line x1="21" y1="23.586" x2="139" y2="23.586" stroke="#9a9a9a" stroke-width="0.1"/>
<line x1="21" y1="28.172" x2="139" y2="28.172" stroke="#9a9a9a" stroke-width="0.1"/>
<line x1="21" y1="32.758" x2="139" y2="32.758" stroke="#9a9a9a" stroke-width="0.1"/>
<line x1="21" y1="37.344" x2="139" y2="37.344" stroke="#9a9a9a" stroke-width="0.1"/>
<line x1="21" y1="41.931" x2="139" y2="41.931" stroke="#9a9a9a" stroke-width="0.1"/>
<line x1="21" y1="46.517" x2="139" y2="46.517" stroke="#9a9a9a" stroke-width="0.1"/>
<line x1="21" y1="51.103" x2="139" y2="51.103" stroke="#9a9a9a" stroke-width="0.1"/>
<line x1="21" y1="55.689" x2="139" y2="55.689" stroke="#9a9a9a" stroke-width="0.1"/>
<line x1="21" y1="60.275" x2="139" y2="60.275" stroke="#9a9a9a" stroke-width="0.1"/>
<line x1="21" y1="64.861" x2="139" y2="64.861" stroke="#9a9a9a" stroke-width="0.1"/>
<line x1="21" y1="69.447" x2="139" y2="69.447" stroke="#9a9a9a" stroke-width="0.1"/>
<line x1="21" y1="74.033" x2="139" y2="74.033" stroke="#9a9a9a" stroke-width="0.1"/>
<line x1="21" y1="78.619" x2="139" y2="78.619" stroke="#9a9a9a" stroke-width="0.1"/>
<line x1="21" y1="83.206" x2="139" y2="83.206" stroke="#9a9a9a" stroke-width="0.1"/>
<line x1="21" y1="87.792" x2="139" y2="87.792" stroke="#9a9a9a" stroke-width="0.1"/>
<line x1="21" y1="92.378" x2="139" y2="92.378" stroke="#9a9a9a" stroke-width="0.1"/>
<line x1="21" y1="96.964" x2="139" y2="96.964" stroke="#9a9a9a" stroke-width="0.1"/>
<line x1="21" y1="101.550" x2="139" y2="101.550" stroke="#9a9a9a" stroke-width="0.1"/>
<line x1="21" y1="106.136" x2="139" y2="106.136" stroke="#9a9a9a" stroke-width="0.1"/>
<line x1="21" y1="110.722" x2="139" y2="110.722" stroke="#9a9a9a" stroke-width="0.1"/>
<line x1="21" y1="115.308" x2="139" y2="115.308" stroke="#9a9a9a" stroke-width="0.1"/>
<line x1="21" y1="119.894" x2="139" y2="119.894" stroke="#9a9a9a" stroke-width="0.1"/>
<line x1="21" y1="124.481" x2="139" y2="124.481" stroke="#9a9a9a" stroke-width="0.1"/>
<line x1="21" y1="129.067" x2="139" y2="129.067" stroke="#9a9a9a" stroke-width="0.1"/>
<line x1="21" y1="133.653" x2="139" y2="133.653" stroke="#9a9a9a" stroke-width="0.1"/>
<line x1="21" y1="138.239" x2="139" y2="138.239" stroke="#9a9a9a" stroke-width="0.1"/>
<line x1="21" y1="142.825" x2="139" y2="142.825" stroke="#9a9a9a" stroke-width="0.1"/>
<line x1="21" y1="147.411" x2="139" y2="147.411" stroke="#9a9a9a" stroke-width="0.1"/>
<line x1="21" y1="151.997" x2="139" y2="151.997" stroke="#9a9a9a" stroke-width="0.1"/>
<line x1="21" y1="156.583" x2="139" y2="156.583" stroke="#9a9a9a" stroke-width="0.1"/>
<line x1="21" y1="161.169" x2="139" y2="161.169" stroke="#9a9a9a" stroke-width="0.1"/>
<line x1="21" y1="165.756" x2="139" y2="165.756" stroke="#9a9a9a" stroke-width="0.1"/>
<line x1="21" y1="170.342" x2="139" y2="170.342" stroke="#9a9a9a" stroke-width="0.1"/>
<line x1="21" y1="174.928" x2="139" y2="174.928" stroke="#9a9a9a" stroke-width="0.1"/>
<line x1="21" y1="179.514" x2="139" y2="179.514" stroke="#9a9a9a" stroke-width="0.1"/>
<line x1="21" y1="184.100" x2="139" y2="184.100" stroke="#9a9a9a" stroke-width="0.1"/>
<line x1="21" y1="188.686" x2="139" y2="188.686" stroke="#9a9a9a" stroke-width="0.1"/>
<line x1="-1" y1="3" x2="0" y2="3" stroke="#1a1a1a" stroke-width="0.2"/>
<line x1="3" y1="-1" x2="3" y2="0" stroke="#1a1a1a" stroke-width="0.2"/>
<line x1="-1" y1="213" x2="0" y2="213" stroke="#1a1a1a" stroke-width="0.2"/>
<line x1="3" y1="217" x2="3" y2="216" stroke="#1a1a1a" stroke-width="0.2"/>
<rect x="151" y="3" width="148" height="210" fill="none" stroke="#1a1a1a" stroke-width="0.3"/>
<rect x="156" y="8" width="138" height="200" fill="none" stroke="#2e8b57" stroke-width="0.25" stroke-dasharray="1 1"/>
<rect x="163" y="19" width="118" height="172" fill="none" stroke="#1f5fa6" stroke-width="0.3"/>
<line x1="163" y1="19.000" x2="281" y2="19.000" stroke="#9a9a9a" stroke-width="0.1"/>
<line x1="163" y1="23.586" x2="281" y2="23.586" stroke="#9a9a9a" stroke-width="0.1"/>
<line x1="163" y1="28.172" x2="281" y2="28.172" stroke="#9a9a9a" stroke-width="0.1"/>
<line x1="163" y1="32.758" x2="281" y2="32.758" stroke="#9a9a9a" stroke-width="0.1"/>
<line x1="163" y1="37.344" x2="281" y2="37.344" stroke="#9a9a9a" stroke-width="0.1"/>
<line x1="163" y1="41.931" x2="281" y2="41.931" stroke="#9a9a9a" stroke-width="0.1"/>
<line x1="163" y1="46.517" x2="281" y2="46.517" stroke="#9a9a9a" stroke-width="0.1"/>
<line x1="163" y1="51.103" x2="281" y2="51.103" stroke="#9a9a9a" stroke-width="0.1"/>
<line x1="163" y1="55.689" x2="281" y2="55.689" stroke="#9a9a9a" stroke-width="0.1"/>
<line x1="163" y1="60.275" x2="281" y2="60.275" stroke="#9a9a9a" stroke-width="0.1"/>
<line x1="163" y1="64.861" x2="281" y2="64.861" stroke="#9a9a9a" stroke-width="0.1"/>
<line x1="163" y1="69.447" x2="281" y2="69.447" stroke="#9a9a9a" stroke-width="0.1"/>
<line x1="163" y1="74.033" x2="281" y2="74.033" stroke="#9a9a9a" stroke-width="0.1"/>
<line x1="163" y1="78.619" x2="281" y2="78.619" stroke="#9a9a9a" stroke-width="0.1"/>
<line x1="163" y1="83.206" x2="281" y2="83.206" stroke="#9a9a9a" stroke-width="0.1"/>
<line x1="163" y1="87.792" x2="281" y2="87.792" stroke="#9a9a9a" stroke-width="0.1"/>
<line x1="163" y1="92.378" x2="281" y2="92.378" stroke="#9a9a9a" stroke-width="0.1"/>
<line x1="163" y1="96.964" x2="281" y2="96.964" stroke="#9a9a9a" stroke-width="0.1"/>
<line x1="163" y1="101.550" x2="281" y2="101.550" stroke="#9a9a9a" stroke-width="0.1"/>
<line x1="163" y1="106.136" x2="281" y2="106.136" stroke="#9a9a9a" stroke-width="0.1"/>
<line x1="163" y1="110.722" x2="281" y2="110.722" stroke="#9a9a9a" stroke-width="0.1"/>
<line x1="163" y1="115.308" x2="281" y2="115.308" stroke="#9a9a9a" stroke-width="0.1"/>
<line x1="163" y1="119.894" x2="281" y2="119.894" stroke="#9a9a9a" stroke-width="0.1"/>
<line x1="163" y1="124.481" x2="281" y2="124.481" stroke="#9a9a9a" stroke-width="0.1"/>
<line x1="163" y1="129.067" x2="281" y2="129.067" stroke="#9a9a9a" stroke-width="0.1"/>
<line x1="163" y1="133.653" x2="281" y2="133.653" stroke="#9a9a9a" stroke-width="0.1"/>
<line x1="163" y1="138.239" x2="281" y2="138.239" stroke="#9a9a9a" stroke-width="0.1"/>
<line x1="163" y1="142.825" x2="281" y2="142.825" stroke="#9a9a9a" stroke-width="0.1"/>
<line x1="163" y1="147.411" x2="281" y2="147.411" stroke="#9a9a9a" stroke-width="0.1"/>
<line x1="163" y1="151.997" x2="281" y2="151.997" stroke="#9a9a9a" stroke-width="0.1"/>
<line x1="163" y1="156.583" x2="281" y2="156.583" stroke="#9a9a9a" stroke-width="0.1"/>
<line x1="163" y1="161.169" x2="281" y2="161.169" stroke="#9a9a9a" stroke-width="0.1"/>
<line x1="163" y1="165.756" x2="281" y2="165.756" stroke="#9a9a9a" stroke-width="0.1"/>
<line x1="163" y1="170.342" x2="281" y2="170.342" stroke="#9a9a9a" stroke-width="0.1"/>
<line x1="163" y1="174.928" x2="281" y2="174.928" stroke="#9a9a9a" stroke-width="0.1"/>
<line x1="163" y1="179.514" x2="281" y2="179.514" stroke="#9a9a9a" stroke-width="0.1"/>
<line x1="163" y1="184.100" x2="281" y2="184.100" stroke="#9a9a9a" stroke-width="0.1"/>
<line x1="163" y1="188.686" x2="281" y2="188.686" stroke="#9a9a9a" stroke-width="0.1"/>
<line x1="303" y1="3" x2="302" y2="3" stroke="#1a1a1a" stroke-width="0.2"/>
<line x1="299" y1="-1" x2="299" y2="0" stroke="#1a1a1a" stroke-width="0.2"/>
<line x1="303" y1="213" x2="302" y2="213" stroke="#1a1a1a" stroke-width="0.2"/>
<line x1="299" y1="217" x2="299" y2="216" stroke="#1a1a1a" stroke-width="0.2"/>
<line x1="151" y1="0" x2="151" y2="216" stroke="#7a5c00" stroke-width="0.2" stroke-dasharray="3 1.5"/>
<text x="5" y="215" font-family="monospace" font-size="2.2" fill="#555">MatrixBook · livret-a5-double-page · fond perdu 3 mm · zone sûre 5 mm · marges H/B/I/E 16/22/12/18 mm · 1 col. · gouttière 4 mm · base 13.0 pt</text>
</svg>
